# xmcd CD database file
#
# Track frame offsets:
#	150
#	19834
#	36775
#	52782
#	74845
#	98280
#	118925
#	147133
#	169112
#	197247
#	221672
#
# Disc length: 3168 seconds
#
# Revision: 0
# Processed by: cddbd v1.5.1PL0 Copyright (c) Steve Scherf et al.
# Submitted via: CDex 1.51
#
DISCID=9c0c5e0b
DTITLE=デキシード・ザ・エモンズ - in dock
DYEAR=2005
DGENRE=Rock and Roll
TTITLE0=HAVE
TTITLE1=鐘の鳴る丘で
TTITLE2=VANILA
TTITLE3=悲しみのページ
TTITLE4=1000nights
TTITLE5=夕暮れ風通り
TTITLE6=Baby Don't Do It, Now
TTITLE7=マグマ
TTITLE8=It Ain't You, Baby
TTITLE9=パレード
TTITLE10=マリアーナ
EXTD=YEAR: 2005
EXTT0=
EXTT1=
EXTT2=
EXTT3=
EXTT4=
EXTT5=
EXTT6=
EXTT7=
EXTT8=
EXTT9=
EXTT10=
PLAYORDER=
